<svg xmlns="http://www.w3.org/2000/svg" width="256" height="256"><path fill-opacity=".016" d="M0 128.004v128.004l128.25-.254 128.25-.254.254-127.75L257.008 0H0v128.004m.485.496c0 70.4.119 99.053.265 63.672.146-35.38.146-92.98 0-128C.604 29.153.485 58.1.485 128.5" fill="#1976D2" fill-rule="evenodd"/><path fill-opacity=".418" d="M116 1.096c-1.925.463-6.875 1.419-11 2.123L97.5 4.5l-.274 16.648-.273 16.647-6.725 2.853c-7.105 3.013-19.791 10.865-22.098 13.676-1.107 1.35-1.148 2.579-.216 6.423C69.094 65.611 78.755 85.9 81.605 89.5c1.529 1.931 1.623 1.936 2.739.151 10.882-17.408 18.846-27.135 29.484-36.007 10.787-8.998 21.393-15.827 34.742-22.37L160 25.671V5.196l-3.245-1.132c-1.785-.622-6.525-1.408-10.534-1.747-4.008-.339-7.524-.999-7.813-1.467-.662-1.07-17.719-.884-22.408.246m38.526 43.654c-5.784 6.94-10.192 13.299-14.802 21.353l-2.635 4.602 10.705.606c20.539 1.162 36.694 5.562 55.882 15.22 7.053 3.55 16.634 9.207 21.29 12.57 6.697 4.838 8.787 5.891 10 5.041.844-.592 4.796-2.922 8.784-5.179 3.988-2.257 7.25-4.745 7.25-5.529 0-2.502-4.162-13.683-8.022-21.551-4.679-9.537-12.394-21.03-18.666-27.809l-4.812-5.201-13.986 8.063C197.822 51.371 191.186 55 190.767 55c-.419 0-3.575-2.091-7.014-4.646C178.808 46.68 162.511 38 160.558 38c-.224 0-2.938 3.038-6.032 6.75m-122.025-.54C19.879 58.248 6.867 82.148 6.595 91.793c-.098 3.469.433 3.954 10.405 9.492 4.146 2.303 9.304 5.3 12.864 7.476l3.364 2.056.136 17.007c.075 9.354.476 17.348.891 17.763C36.997 148.333 74 151.551 74 149.044c0-.526-1.406-3.338-3.125-6.25-8.421-14.267-13.986-31.803-15.961-50.294-1.09-10.211-.703-38.243.576-41.638.339-.9-2.446-3.056-8.219-6.362-4.802-2.75-9.019-5.131-9.372-5.29-.353-.16-2.782 2.09-5.398 5M119 105.129c-6.011 2.654-10.735 7.295-13.613 13.371-6.184 13.059.685 28.513 14.893 33.507 6.918 2.432 9.012 2.47 15.759.291 7.119-2.299 13.96-9.14 16.259-16.259 2.165-6.703 2.137-8.85-.201-15.502-2.547-7.249-7.828-12.774-14.736-15.417-6.8-2.603-12.454-2.6-18.361.009m64.543 2.801c-.316.511.839 3.323 2.566 6.25 12.402 21.01 17.89 46.385 16.462 76.108-.365 7.583-.904 14.417-1.199 15.185-.552 1.438 2.109 3.402 12.724 9.388l5.596 3.156 5.703-6.759c7.013-8.31 11.179-14.511 16.3-24.258 3.713-7.069 9.32-21.251 9.31-23.547-.003-.576-6.199-4.608-13.769-8.961l-13.765-7.914.015-16.749c.011-13.607-.267-17.013-1.486-18.159-3.127-2.942-36.919-6.229-38.457-3.74M21.462 153.062c-.361.584-1.625 1.475-2.809 1.981-1.184.505-4.403 2.246-7.153 3.867-6.901 4.069-6.8 5.407 1.848 24.576 3.854 8.541 12.877 22.192 19.347 29.27l4.805 5.257 14.5-8.441c14.14-8.232 14.55-8.396 16.5-6.635 3.69 3.331 11.948 8.57 18 11.417 3.3 1.553 6.744 3.211 7.654 3.683 1.268.66 2.828-.382 6.696-4.472 5.122-5.416 15.313-20.233 17.04-24.776l.947-2.492-11.168-.618c-25.831-1.429-49.226-9.787-73.961-26.421C27.773 155.266 22.737 152 22.517 152c-.219 0-.694.478-1.055 1.062m148.501 17.688c-13.326 23.734-40.126 46.093-70.247 58.605l-3.784 1.572.284 10.747.284 10.748 6 1.284c11.172 2.39 32.962 2.786 45.88.833l11.62-1.756v-33.467l8.25-3.685c4.537-2.026 11.332-5.953 15.099-8.725 6.76-4.975 6.839-5.088 6.165-8.723-1.001-5.403-5.86-16.607-11.031-25.442-2.493-4.257-4.703-7.741-4.912-7.741-.209 0-1.833 2.588-3.608 5.75" fill="#1976D2" fill-rule="evenodd"/><path fill-opacity=".302" d="M154.485 45.702C148.59 52.809 139 67.587 139 69.564c0 .777 4.128 1.32 12.75 1.679 25.918 1.078 53.094 11.713 77.963 30.509l3.213 2.429 7.287-4.034c10.309-5.707 11.448-6.642 10.097-8.289-.613-.747-1.647-3.383-2.298-5.858-2.943-11.188-13.998-30.127-24.071-41.238l-4.559-5.028-14.271 8.202c-13.611 7.823-14.371 8.129-16.441 6.612-5.356-3.924-15.561-10.256-19.67-12.206-8.573-4.067-8.303-4.129-14.515 3.36M32.35 45.315C22.721 55.866 13.318 71.979 8.492 86.2c-1.363 4.015-2.481 7.409-2.485 7.541-.004.133 2.508 1.708 5.582 3.5 3.074 1.793 7.237 4.241 9.25 5.44 2.014 1.2 5.011 2.858 6.661 3.686 1.65.827 3.982 2.321 5.182 3.319 2.025 1.683 2.107 2.212 1.14 7.314-1.415 7.464-.504 26.959 1.313 28.088 2.812 1.746 11.776 3.068 24.615 3.631 7.287.319 13.25.274 13.25-.1s-1.722-3.719-3.827-7.434c-2.105-3.714-4.333-8.088-4.953-9.719-6.483-17.081-7.843-22.27-10.337-39.466-.938-6.468-.724-36.63.29-40.923.197-.83-2.863-3.3-7.673-6.193-4.4-2.647-8.292-4.828-8.65-4.848-.357-.02-2.832 2.356-5.5 5.279m87.502 60.076c-18.441 6.588-21.624 32.245-5.37 43.29 5.425 3.687 13.029 4.971 20.085 3.391C144.853 149.771 153 139.352 153 128.5c0-6.595-2.349-11.98-7.431-17.03-7.194-7.15-16.537-9.359-25.717-6.079m50.797 65.512c-12.191 22.399-38.85 45.314-66.955 57.55L97 231.368v20.159l5.25 1.386c3.101.819 12.413 1.56 22.75 1.81 15.893.384 20.366.054 32.25-2.386l2.75-.564v-33.328l6.75-2.917c6.049-2.614 16.672-8.963 21.577-12.896 1.759-1.411 1.735-1.717-.648-8.298-1.361-3.759-3.06-8.184-3.776-9.834-1.425-3.283-9.923-18.5-10.332-18.5-.139 0-1.454 2.206-2.922 4.903" fill="#1976D2" fill-rule="evenodd"/><path fill-opacity=".549" d="M122.5 104.93c-13.067 3.629-20.308 15.442-17.632 28.765 2.55 12.701 14.993 20.706 28.352 18.24 16.651-3.074 24.779-22.38 15.399-36.58-5.534-8.38-17.003-12.957-26.119-10.425" fill="#1976D2" fill-rule="evenodd"/></svg>